<svg xmlns="http://www.w3.org/2000/svg" viewBox="0 0 258.81 71.4">
  <defs>
    <style>
      .cls-1,
      .cls-4 {
        fill: #fe520b;
      }
      .cls-1,
      .cls-2 {
        fillRule: evenodd;
      }
      .cls-2,
      .cls-3 {
        fill: #fff;
      }
    </style>
  </defs>
  <g id="Layer_2" data-name="Layer 2">
    <g id="Layer_1-2" data-name="Layer 1">
      <path class="cls-1" d="M35.7,71.4A35.7,35.7,0,1,0,0,35.7,35.7,35.7,0,0,0,35.7,71.4Z" fill="#fe520b" />
      <path
        class="cls-2"
        d="M39.51,9.88a22.48,22.48,0,0,1,10.71,2.7L46.55,22.64a12,12,0,0,0-6.69-2A12.13,12.13,0,0,0,27.73,32.73v.2h0v25.3H17v-26h0V32A22.53,22.53,0,0,1,39.51,9.88Z"
      />
      <path
        class="cls-3"
        d="M106.5,26.48l-4.29-6.15a7.31,7.31,0,0,1-.81,0H96.66v6.12h-3.9v-21h8.64c5.52,0,8.94,2.82,8.94,7.47a6.71,6.71,0,0,1-4.47,6.63l4.83,6.9Zm-5.28-17.7H96.66v8.37h4.56c3.42,0,5.19-1.56,5.19-4.2S104.64,8.78,101.22,8.78Z"
      />
      <path
        class="cls-3"
        d="M129.93,19.67H117.36c.45,2.34,2.4,3.84,5.19,3.84a5.74,5.74,0,0,0,4.35-1.74l2,2.31a8.12,8.12,0,0,1-6.45,2.61c-5.37,0-8.85-3.45-8.85-8.22a8,8,0,0,1,8.28-8.19c4.68,0,8.1,3.27,8.1,8.28C130,18.86,130,19.31,129.93,19.67Zm-12.6-2.49h9.09a4.36,4.36,0,0,0-4.53-3.9A4.43,4.43,0,0,0,117.33,17.18Z"
      />
      <path
        class="cls-3"
        d="M132.36,24.89,133.8,22a10.78,10.78,0,0,0,5.58,1.59c2.37,0,3.36-.66,3.36-1.77,0-3.06-9.9-.18-9.9-6.57,0-3,2.73-5,7-5a12.75,12.75,0,0,1,6,1.38l-1.44,2.85a8.77,8.77,0,0,0-4.59-1.2c-2.28,0-3.36.75-3.36,1.8,0,3.24,9.9.36,9.9,6.63,0,3-2.76,5-7.26,5A12.73,12.73,0,0,1,132.36,24.89Z"
      />
      <path
        class="cls-3"
        d="M148.92,18.47c0-4.8,3.6-8.19,8.52-8.19S166,13.67,166,18.47s-3.57,8.22-8.55,8.22S148.92,23.27,148.92,18.47Zm13.29,0a4.76,4.76,0,1,0-9.51,0,4.76,4.76,0,1,0,9.51,0Z"
      />
      <path class="cls-3" d="M170.19,4.22h3.75V26.48h-3.75Z" />
      <path
        class="cls-3"
        d="M195,10.46v16H191.4v-2a6.54,6.54,0,0,1-5.16,2.25c-4.11,0-6.9-2.25-6.9-7.08V10.46h3.75V19.1c0,2.91,1.38,4.29,3.75,4.29,2.61,0,4.38-1.62,4.38-4.83v-8.1Z"
      />
      <path
        class="cls-3"
        d="M210.12,25.61a5.89,5.89,0,0,1-3.6,1.08c-3.51,0-5.52-1.86-5.52-5.4V13.58h-2.64v-3H201V6.92h3.75v3.66H209v3h-4.29V21.2c0,1.56.78,2.4,2.22,2.4a3.37,3.37,0,0,0,2.1-.66Z"
      />
      <path class="cls-3" d="M213.3,5.57a2.28,2.28,0,0,1,2.4-2.25,2.23,2.23,0,0,1,2.4,2.16,2.4,2.4,0,0,1-4.8.09Zm.51,4.89h3.75v16h-3.75Z" />
      <path
        class="cls-3"
        d="M221.76,18.47c0-4.8,3.6-8.19,8.52-8.19s8.55,3.39,8.55,8.19-3.57,8.22-8.55,8.22S221.76,23.27,221.76,18.47Zm13.29,0a4.76,4.76,0,1,0-9.51,0,4.76,4.76,0,1,0,9.51,0Z"
      />
      <path
        class="cls-3"
        d="M258.81,17.3v9.18h-3.75v-8.7c0-2.85-1.41-4.23-3.81-4.23-2.67,0-4.47,1.62-4.47,4.83v8.1H243v-16h3.57v2.07a7,7,0,0,1,5.52-2.25C256,10.28,258.81,12.47,258.81,17.3Z"
      />
      <path
        class="cls-3"
        d="M92.76,41.48h9.18c6.81,0,11.46,4.2,11.46,10.5s-4.65,10.5-11.46,10.5H92.76Zm9,17.7c4.68,0,7.71-2.86,7.71-7.2s-3-7.2-7.71-7.2h-5.1v14.4Z"
      />
      <path class="cls-3" d="M117.27,41.57a2.28,2.28,0,0,1,2.4-2.25,2.23,2.23,0,0,1,2.4,2.16,2.4,2.4,0,0,1-4.8.09Zm.51,4.89h3.75v16h-3.75Z" />
      <path
        class="cls-3"
        d="M143,46.46V60.05c0,5.81-3,8.45-8.64,8.45-3,0-6-.77-7.8-2.27l1.68-2.83a9.68,9.68,0,0,0,5.91,1.92c3.54,0,5.1-1.62,5.1-4.85v-.85a7,7,0,0,1-5.37,2.13c-4.59,0-8.1-3.11-8.1-7.76s3.51-7.71,8.1-7.71a6.94,6.94,0,0,1,5.55,2.31V46.46ZM139.26,54c0-2.7-2-4.53-4.86-4.53s-4.89,1.83-4.89,4.53,2,4.58,4.89,4.58A4.53,4.53,0,0,0,139.26,54Z"
      />
      <path class="cls-3" d="M148,41.57a2.28,2.28,0,0,1,2.4-2.25,2.23,2.23,0,0,1,2.4,2.16,2.4,2.4,0,0,1-4.8.09Zm.51,4.89h3.75v16h-3.75Z" />
      <path
        class="cls-3"
        d="M167.37,61.61a6,6,0,0,1-3.6,1.08c-3.51,0-5.52-1.87-5.52-5.41v-7.7h-2.64v-3h2.64V42.92H162v3.66h4.29v3H162v7.61c0,1.57.78,2.41,2.22,2.41a3.37,3.37,0,0,0,2.1-.66Z"
      />
      <path
        class="cls-3"
        d="M184.47,53.09v9.39h-3.54V60.53c-.9,1.37-2.64,2.16-5,2.16-3.66,0-6-2-6-4.8s1.8-4.78,6.66-4.78h4.14v-.23c0-2.19-1.32-3.48-4-3.48A7.93,7.93,0,0,0,171.87,51l-1.47-2.73a11.26,11.26,0,0,1,6.78-2C181.8,46.28,184.47,48.47,184.47,53.09Zm-3.75,4.38V55.61h-3.87c-2.55,0-3.24,1-3.24,2.13,0,1.35,1.14,2.21,3.06,2.21A4.09,4.09,0,0,0,180.72,57.47Z"
      />
      <path class="cls-3" d="M189.87,40.22h3.75V62.48h-3.75Z" />
      <path class="cls-4" d="M197.88,60.19a2.46,2.46,0,1,1,4.92,0,2.46,2.46,0,1,1-4.92,0Z" />
    </g>
  </g>
</svg>


