
<svg version="1.1" id="Layer_1" xmlns="http://www.w3.org/2000/svg" xmlns:xlink="http://www.w3.org/1999/xlink" x="0px" y="0px"
  viewBox="0 0 71.4 71.4" style="enable-background:new 0 0 71.4 71.4;" xml:space="preserve">
  <style type="text/css">
    .st0{fillRule:evenodd;clipRule:evenodd;fill:#F15523;}
    .st1{fillRule:evenodd;clipRule:evenodd;fill:#FFFFFF;}
  </style>
  <path class="st0" d="M35.7,71.4c19.72,0,35.7-15.98,35.7-35.7S55.42,0,35.7,0S0,15.98,0,35.7c0,0,0,0,0,0
    C0,55.42,15.98,71.4,35.7,71.4z"/>
  <path class="st1" d="M39.51,9.88c3.74,0,7.42,0.92,10.71,2.7l-3.67,10.06c-1.98-1.32-4.31-2.01-6.69-2
  c-6.68,0-12.11,5.41-12.13,12.09v0.2l0,0v25.3H17v-26l0,0V32C17.22,19.73,27.23,9.89,39.51,9.88z"/>
</svg>