<svg width="42" height="42" viewBox="0 0 42 42" fill="none" xmlns="http://www.w3.org/2000/svg">
  <g clipPath="url(#clip0_1630_131)">
  <path d="M11.8125 30.1875V38.0625" stroke="#FE520B" stroke-width="1.5" stroke-linecap="round" stroke-linejoin="round"/>
  <path d="M11.8125 11.1562C14.3496 11.1562 16.4062 9.09956 16.4062 6.5625C16.4062 4.02544 14.3496 1.96875 11.8125 1.96875C9.27544 1.96875 7.21875 4.02544 7.21875 6.5625C7.21875 9.09956 9.27544 11.1562 11.8125 11.1562Z" stroke="#FE520B" stroke-width="1.5" stroke-linecap="round" stroke-linejoin="round"/>
  <path d="M6.5625 30.1875H3.9375C3.24132 30.1875 2.57362 29.911 2.08134 29.4187C1.58906 28.9264 1.3125 28.2586 1.3125 27.5625V19.6875C1.3125 18.2952 1.86562 16.9598 2.85019 15.9752C3.83476 14.9906 5.17011 14.4375 6.5625 14.4375H23.625C24.3211 14.4375 24.989 14.7141 25.4812 15.2063C25.9735 15.6986 26.25 16.3663 26.25 17.0625C26.25 17.7586 25.9735 18.4265 25.4812 18.9187C24.989 19.411 24.3211 19.6875 23.625 19.6875H17.0625V38.0625C17.0625 38.7586 16.7859 39.4264 16.2937 39.9187C15.8014 40.411 15.1337 40.6875 14.4375 40.6875C13.7413 40.6875 13.0736 40.411 12.5813 39.9187C12.0891 39.4264 11.8125 38.7586 11.8125 38.0625C11.8125 38.7586 11.5359 39.4264 11.0437 39.9187C10.5514 40.411 9.88368 40.6875 9.1875 40.6875C8.49132 40.6875 7.82362 40.411 7.33135 39.9187C6.83907 39.4264 6.5625 38.7586 6.5625 38.0625L6.55025 21" stroke="#FE520B" stroke-width="1.5" stroke-linecap="round" stroke-linejoin="round"/>
  <path d="M22.3125 5.25V3.9375C22.3125 3.24132 22.589 2.57362 23.0813 2.08134C23.5735 1.58906 24.2414 1.3125 24.9375 1.3125H38.0625C38.7586 1.3125 39.4264 1.58906 39.9187 2.08134C40.411 2.57362 40.6875 3.24132 40.6875 3.9375V19.6875C40.6875 20.3836 40.411 21.0515 39.9187 21.5437C39.4264 22.036 38.7586 22.3125 38.0625 22.3125H30.1875" stroke="#FE520B" stroke-width="1.5" stroke-linecap="round" stroke-linejoin="round"/>
  <path d="M34.125 11.8125C34.125 12.8568 33.7101 13.8583 32.9717 14.5967C32.2332 15.3352 31.2317 15.75 30.1875 15.75" stroke="#FE520B" stroke-width="1.5" stroke-linecap="round" stroke-linejoin="round"/>
  <path d="M38.0625 22.3125V32.8125" stroke="#FE520B" stroke-width="1.5" stroke-linecap="round" stroke-linejoin="round"/>
  <path d="M35.4375 7.21875C35.0751 7.21875 34.7812 6.92494 34.7812 6.5625C34.7812 6.20006 35.0751 5.90625 35.4375 5.90625" stroke="#FE520B" stroke-width="1.5"/>
  <path d="M35.4375 7.21875C35.7999 7.21875 36.0938 6.92494 36.0938 6.5625C36.0938 6.20006 35.7999 5.90625 35.4375 5.90625" stroke="#FE520B" stroke-width="1.5"/>
  </g>
  <defs>
  <clipPath id="clip0_1630_131">
  <rect width="42" height="42" fill="white"/>
  </clipPath>
  </defs>
</svg>
