<svg width="42" height="42" viewBox="0 0 42 42" fill="none" xmlns="http://www.w3.org/2000/svg">
  <g clipPath="url(#clip0_1630_55)">
  <path d="M11.375 37.6741C7.30112 35.3313 4.22503 31.5791 2.72653 27.125C1.22804 22.6708 1.41066 17.8224 3.23997 13.4936C5.06929 9.16476 8.41893 5.65465 12.6575 3.62492C16.896 1.59518 21.7306 1.18604 26.2499 2.47461" stroke="#FE520B" stroke-width="1.5" stroke-linecap="round" stroke-linejoin="round"/>
  <path d="M30.6248 4.32593C34.6868 6.66009 37.7582 10.3955 39.2634 14.832C40.7685 19.2686 40.6041 24.1017 38.8009 28.4257C36.9977 32.7497 33.6796 36.2677 29.4683 38.3204C25.257 40.3731 20.4417 40.8196 15.9248 39.5762" stroke="#FE520B" stroke-width="1.5" stroke-linecap="round" stroke-linejoin="round"/>
  <path d="M5.39893 39.2718L11.3752 37.6706L9.77393 31.6943" stroke="#FE520B" stroke-width="1.5" stroke-linecap="round" stroke-linejoin="round"/>
  <path d="M36.6013 2.72827L30.625 4.32952L32.2263 10.3058" stroke="#FE520B" stroke-width="1.5" stroke-linecap="round" stroke-linejoin="round"/>
  <path d="M21.3149 20.5625C24.4561 20.5625 27.0024 18.0161 27.0024 14.875C27.0024 11.7339 24.4561 9.1875 21.3149 9.1875C18.1738 9.1875 15.6274 11.7339 15.6274 14.875C15.6274 18.0161 18.1738 20.5625 21.3149 20.5625Z" stroke="#FE520B" stroke-width="1.5" stroke-linecap="round" stroke-linejoin="round"/>
  <path d="M30.1631 29.3125C29.5094 27.5169 28.3192 25.9659 26.7539 24.8699C25.1885 23.7739 23.3239 23.186 21.4131 23.186C19.5022 23.186 17.6376 23.7739 16.0723 24.8699C14.507 25.9659 13.3167 27.5169 12.6631 29.3125" stroke="#FE520B" stroke-width="1.5" stroke-linecap="round" stroke-linejoin="round"/>
  </g>
  <defs>
  <clipPath id="clip0_1630_55">
  <rect width="42" height="42" fill="white"/>
  </clipPath>
  </defs>
</svg>
