<svg width="42" height="42" viewBox="0 0 42 42" fill="none" xmlns="http://www.w3.org/2000/svg">
  <g clipPath="url(#clip0_1630_43)">
  <path d="M32.2944 21.4375C32.2944 21.4375 27.0444 16.1875 27.0444 11.8125H34.9194L20.9194 1.3125L6.91943 11.8125H14.7944C14.7944 16.1875 9.54443 21.4375 9.54443 21.4375" stroke="#FE520B" stroke-width="1.5" stroke-linecap="round" stroke-linejoin="round"/>
  <path d="M5.90625 34.125C8.44331 34.125 10.5 32.0683 10.5 29.5312C10.5 26.9942 8.44331 24.9375 5.90625 24.9375C3.36919 24.9375 1.3125 26.9942 1.3125 29.5312C1.3125 32.0683 3.36919 34.125 5.90625 34.125Z" stroke="#FE520B" stroke-width="1.5" stroke-linecap="round" stroke-linejoin="round"/>
  <path d="M13.1495 40.2203C12.6854 39.1359 11.9837 38.1697 11.0962 37.3929C10.2086 36.6162 9.15795 36.0487 8.0217 35.7323C6.88545 35.416 5.69266 35.359 4.53142 35.5654C3.37017 35.7718 2.27012 36.2365 1.3125 36.925" stroke="#FE520B" stroke-width="1.5" stroke-linecap="round" stroke-linejoin="round"/>
  <path d="M36.0938 34.125C38.6308 34.125 40.6875 32.0683 40.6875 29.5312C40.6875 26.9942 38.6308 24.9375 36.0938 24.9375C33.5567 24.9375 31.5 26.9942 31.5 29.5312C31.5 32.0683 33.5567 34.125 36.0938 34.125Z" stroke="#FE520B" stroke-width="1.5" stroke-linecap="round" stroke-linejoin="round"/>
  <path d="M28.8506 40.2203C29.3147 39.1359 30.0164 38.1697 30.9039 37.3929C31.7915 36.6162 32.8421 36.0487 33.9784 35.7323C35.1146 35.416 36.3074 35.359 37.4687 35.5654C38.6299 35.7718 39.73 36.2365 40.6876 36.925" stroke="#FE520B" stroke-width="1.5" stroke-linecap="round" stroke-linejoin="round"/>
  <path d="M21 34.125C24.2619 34.125 26.9062 31.4807 26.9062 28.2188C26.9062 24.9568 24.2619 22.3125 21 22.3125C17.7381 22.3125 15.0938 24.9568 15.0938 28.2188C15.0938 31.4807 17.7381 34.125 21 34.125Z" stroke="#FE520B" stroke-width="1.5" stroke-linecap="round" stroke-linejoin="round"/>
  <path d="M29.2493 40.6875C28.2547 39.4575 26.9976 38.4655 25.5701 37.784C24.1426 37.1025 22.5808 36.7488 20.9989 36.7488C19.4171 36.7488 17.8552 37.1025 16.4277 37.784C15.0002 38.4655 13.7432 39.4575 12.7485 40.6875" stroke="#FE520B" stroke-width="1.5" stroke-linecap="round" stroke-linejoin="round"/>
  </g>
  <defs>
  <clipPath id="clip0_1630_43">
  <rect width="42" height="42" fill="white"/>
  </clipPath>
  </defs>
</svg>
