<svg width="42" height="42" viewBox="0 0 42 42" fill="none" xmlns="http://www.w3.org/2000/svg">
  <g clipPath="url(#clip0_1630_223)">
  <path d="M32.8123 24.507L24.4351 26.1817" stroke="#FE520B" stroke-width="1.5" stroke-linecap="round" stroke-linejoin="round"/>
  <path d="M25.2663 16.6793L21.3113 18.3505C20.9993 18.4795 20.6642 18.5435 20.3266 18.5387C19.9891 18.5339 19.656 18.4603 19.3478 18.3225C19.0352 18.1829 18.7534 17.9826 18.5188 17.7333C18.2842 17.484 18.1014 17.1905 17.981 16.87C17.7439 16.2607 17.7387 15.5855 17.9664 14.9725C18.1942 14.3596 18.639 13.8516 19.2165 13.545L23.1698 11.5728C23.5972 11.3512 24.0664 11.2221 24.547 11.1937C25.0276 11.1654 25.5088 11.2385 25.9593 11.4083L34.0775 14.6073" stroke="#FE520B" stroke-width="1.5" stroke-linecap="round" stroke-linejoin="round"/>
  <path d="M9.1001 26.25H11.9001L17.2358 30.3205C17.4854 30.6025 17.8348 30.7766 18.2103 30.806C18.5857 30.8354 18.9579 30.7178 19.2483 30.478L26.7033 24.3215C26.998 24.0776 27.1862 23.7288 27.2284 23.3487C27.2705 22.9686 27.1632 22.5869 26.9291 22.2845L22.8218 17.7188" stroke="#FE520B" stroke-width="1.5" stroke-linecap="round" stroke-linejoin="round"/>
  <path d="M18.7879 13.825L18.3556 13.475C17.927 13.1588 17.4247 12.9573 16.8965 12.8896C16.3682 12.8219 15.8313 12.8903 15.3369 13.0882L9.08936 15.75" stroke="#FE520B" stroke-width="1.5" stroke-linecap="round" stroke-linejoin="round"/>
  <path d="M2.43262 27.5625H7.08762C7.6145 27.5907 8.13112 27.4092 8.52461 27.0577C8.9181 26.7062 9.15646 26.2132 9.18762 25.6865V16.3117C9.15602 15.7853 8.91747 15.2928 8.52403 14.9417C8.13059 14.5905 7.61421 14.4093 7.08762 14.4375H2.43262" stroke="#FE520B" stroke-width="1.5" stroke-linecap="round" stroke-linejoin="round"/>
  <path d="M39.5675 27.5625H34.9125C34.3856 27.5907 33.869 27.4092 33.4755 27.0577C33.082 26.7062 32.8437 26.2132 32.8125 25.6865V16.3117C32.8441 15.7853 33.0827 15.2928 33.4761 14.9417C33.8695 14.5905 34.3859 14.4093 34.9125 14.4375H39.5675" stroke="#FE520B" stroke-width="1.5" stroke-linecap="round" stroke-linejoin="round"/>
  <path d="M1.3125 21C1.3125 26.2214 3.38671 31.229 7.07884 34.9212C10.771 38.6133 15.7786 40.6875 21 40.6875C26.2214 40.6875 31.229 38.6133 34.9212 34.9212C38.6133 31.229 40.6875 26.2214 40.6875 21C40.6875 15.7786 38.6133 10.771 34.9212 7.07884C31.229 3.38671 26.2214 1.3125 21 1.3125C15.7786 1.3125 10.771 3.38671 7.07884 7.07884C3.38671 10.771 1.3125 15.7786 1.3125 21Z" stroke="#FE520B" stroke-width="1.5" stroke-linecap="round" stroke-linejoin="round"/>
  </g>
  <defs>
  <clipPath id="clip0_1630_223">
  <rect width="42" height="42" fill="white"/>
  </clipPath>
  </defs>
</svg>
