<svg width="42" height="42" viewBox="0 0 42 42" fill="none" xmlns="http://www.w3.org/2000/svg">
  <g clipPath="url(#clip0_1630_207)">
  <path d="M21 35.3466C23.5371 35.3466 25.5938 33.2899 25.5938 30.7528C25.5938 28.2157 23.5371 26.1591 21 26.1591C18.4629 26.1591 16.4062 28.2157 16.4062 30.7528C16.4062 33.2899 18.4629 35.3466 21 35.3466Z" stroke="#FE520B" stroke-width="1.5" stroke-linecap="round" stroke-linejoin="round"/>
  <path d="M27.5625 40.6C26.9281 39.4106 25.9825 38.4159 24.8266 37.7224C23.6707 37.0288 22.348 36.6625 21 36.6625C19.652 36.6625 18.3293 37.0288 17.1734 37.7224C16.0175 38.4159 15.0719 39.4106 14.4375 40.6" stroke="#FE520B" stroke-width="1.5" stroke-linecap="round" stroke-linejoin="round"/>
  <path d="M34.3315 35.3466C36.8686 35.3466 38.9253 33.2899 38.9253 30.7528C38.9253 28.2157 36.8686 26.1591 34.3315 26.1591C31.7945 26.1591 29.7378 28.2157 29.7378 30.7528C29.7378 33.2899 31.7945 35.3466 34.3315 35.3466Z" stroke="#FE520B" stroke-width="1.5" stroke-linecap="round" stroke-linejoin="round"/>
  <path d="M40.6807 39.9438C39.9242 38.8733 38.9095 38.0113 37.7309 37.4377C36.5523 36.8641 35.2479 36.5975 33.9387 36.6626C32.6296 36.7277 31.3581 37.1224 30.2422 37.8101C29.1263 38.4979 28.2022 39.4563 27.5557 40.5965" stroke="#FE520B" stroke-width="1.5" stroke-linecap="round" stroke-linejoin="round"/>
  <path d="M7.66846 35.3466C10.2055 35.3466 12.2622 33.2899 12.2622 30.7528C12.2622 28.2157 10.2055 26.1591 7.66846 26.1591C5.1314 26.1591 3.07471 28.2157 3.07471 30.7528C3.07471 33.2899 5.1314 35.3466 7.66846 35.3466Z" stroke="#FE520B" stroke-width="1.5" stroke-linecap="round" stroke-linejoin="round"/>
  <path d="M1.31934 39.9438C2.07584 38.8733 3.09046 38.0113 4.26907 37.4377C5.44768 36.8641 6.75209 36.5975 8.06125 36.6626C9.37042 36.7277 10.6419 37.1224 11.7578 37.8101C12.8737 38.4979 13.7978 39.4563 14.4443 40.5965" stroke="#FE520B" stroke-width="1.5" stroke-linecap="round" stroke-linejoin="round"/>
  <path d="M39.6059 13.0638L30.7036 21.966L26.3286 22.841L27.2036 18.466L36.1059 9.56375C36.5688 9.10146 37.1964 8.8418 37.8506 8.8418C38.5049 8.8418 39.1324 9.10146 39.5954 9.56375L39.6059 9.57425C39.8352 9.80326 40.0171 10.0752 40.1412 10.3746C40.2654 10.674 40.3293 10.9949 40.3293 11.319C40.3293 11.6431 40.2654 11.964 40.1412 12.2634C40.0171 12.5628 39.8352 12.8347 39.6059 13.0638Z" stroke="#FE520B" stroke-width="1.5" stroke-linecap="round" stroke-linejoin="round"/>
  <path d="M32.4764 5.25169L28.0786 1.40344H7.07861V21.0909" stroke="#FE520B" stroke-width="1.5" stroke-linecap="round" stroke-linejoin="round"/>
  <path d="M12.3286 10.5909L14.0786 12.3409L17.5786 8.84094" stroke="#FE520B" stroke-width="1.5" stroke-linecap="round" stroke-linejoin="round"/>
  <path d="M12.3286 19.3409L14.0786 21.0909L17.5786 17.5909" stroke="#FE520B" stroke-width="1.5" stroke-linecap="round" stroke-linejoin="round"/>
  <path d="M21.9536 11.4659H24.5786" stroke="#FE520B" stroke-width="1.5" stroke-linecap="round" stroke-linejoin="round"/>
  </g>
  <defs>
  <clipPath id="clip0_1630_207">
  <rect width="42" height="42" fill="white"/>
  </clipPath>
  </defs>
</svg>
