<svg width="42" height="42" viewBox="0 0 42 42" fill="none" xmlns="http://www.w3.org/2000/svg">
  <g clipPath="url(#clip0_1630_194)">
  <path d="M28.2589 40.6875V39.2875C28.2589 37.7095 27.632 36.1961 26.5162 35.0802C25.4003 33.9644 23.8869 33.3375 22.3089 33.3375C20.7308 33.3375 19.2174 33.9644 18.1016 35.0802C16.9858 36.1961 16.3589 37.7095 16.3589 39.2875V40.6875" stroke="#FE520B" stroke-width="1.5" stroke-linecap="round" stroke-linejoin="round"/>
  <path d="M22.4247 30.3765C24.3142 30.3765 25.8459 28.8965 25.8459 27.0708C25.8459 25.245 24.3142 23.765 22.4247 23.765C20.5352 23.765 19.0034 25.245 19.0034 27.0708C19.0034 28.8965 20.5352 30.3765 22.4247 30.3765Z" stroke="#FE520B" stroke-width="1.5" stroke-linecap="round" stroke-linejoin="round"/>
  <path d="M40.1588 40.6875V39.2875C40.1588 37.7095 39.5319 36.1961 38.4161 35.0802C37.3002 33.9644 35.7868 33.3375 34.2088 33.3375C32.6308 33.3375 31.1173 33.9644 30.0015 35.0802C28.8857 36.1961 28.2588 37.7095 28.2588 39.2875V40.6875" stroke="#FE520B" stroke-width="1.5" stroke-linecap="round" stroke-linejoin="round"/>
  <path d="M34.3246 30.3765C36.2141 30.3765 37.7458 28.8965 37.7458 27.0708C37.7458 25.245 36.2141 23.765 34.3246 23.765C32.4351 23.765 30.9033 25.245 30.9033 27.0708C30.9033 28.8965 32.4351 30.3765 34.3246 30.3765Z" stroke="#FE520B" stroke-width="1.5" stroke-linecap="round" stroke-linejoin="round"/>
  <path d="M28.0841 1.3125H38.5841C39.0482 1.3125 39.4934 1.49687 39.8215 1.82506C40.1497 2.15325 40.3341 2.59837 40.3341 3.0625V14.4375C40.3341 14.9016 40.1497 15.3467 39.8215 15.6749C39.4934 16.0031 39.0482 16.1875 38.5841 16.1875H24.9849" stroke="#FE520B" stroke-width="1.5" stroke-linecap="round" stroke-linejoin="round"/>
  <path d="M29.2881 7.72101L31.4966 10.346L34.4401 8.59601L36.0291 11.116" stroke="#FE520B" stroke-width="1.5" stroke-linecap="round" stroke-linejoin="round"/>
  <path d="M8.76052 10.2533C11.229 10.2533 13.23 8.25221 13.23 5.78377C13.23 3.31533 11.229 1.31427 8.76052 1.31427C6.29208 1.31427 4.29102 3.31533 4.29102 5.78377C4.29102 8.25221 6.29208 10.2533 8.76052 10.2533Z" stroke="#FE520B" stroke-width="1.5" stroke-linecap="round" stroke-linejoin="round"/>
  <path d="M14.896 25.5395V21.3973L24.346 9.04053L24.3933 8.98103C24.6246 8.67779 24.7939 8.33196 24.8915 7.96329C24.9892 7.59461 25.0133 7.21031 24.9624 6.83233C24.9116 6.45435 24.7867 6.09009 24.5951 5.76035C24.4035 5.4306 24.1488 5.14183 23.8455 4.91053C23.5423 4.67922 23.1964 4.5099 22.8278 4.41225C22.4591 4.31459 22.0748 4.29051 21.6968 4.34137C21.3188 4.39224 20.9546 4.51705 20.6248 4.70869C20.2951 4.90033 20.0063 5.15504 19.775 5.45828L14.6248 12.075C14.4444 12.3055 14.2138 12.4918 13.9506 12.6198C13.6874 12.7477 13.3984 12.814 13.1058 12.8135H7.46727C6.70514 12.8135 5.95048 12.9637 5.24642 13.2555C4.54235 13.5472 3.90267 13.9748 3.36393 14.5139C2.82518 15.053 2.39794 15.6929 2.10661 16.3972C1.81527 17.1014 1.66556 17.8561 1.66602 18.6183V25.3908" stroke="#FE520B" stroke-width="1.5" stroke-linecap="round" stroke-linejoin="round"/>
  </g>
  <defs>
  <clipPath id="clip0_1630_194">
  <rect width="42" height="42" fill="white"/>
  </clipPath>
  </defs>
</svg>
