<svg width="42" height="42" viewBox="0 0 42 42" fill="none" xmlns="http://www.w3.org/2000/svg">
  <path d="M6.125 25.375C8.54124 25.375 10.5 23.4162 10.5 21C10.5 18.5838 8.54124 16.625 6.125 16.625C3.70876 16.625 1.75 18.5838 1.75 21C1.75 23.4162 3.70876 25.375 6.125 25.375Z" stroke="#FE520B" stroke-width="1.5" stroke-miterlimit="10" stroke-linecap="round" stroke-linejoin="round"/>
  <path d="M21.875 14.875C24.2912 14.875 26.25 12.9162 26.25 10.5C26.25 8.08376 24.2912 6.125 21.875 6.125C19.4588 6.125 17.5 8.08376 17.5 10.5C17.5 12.9162 19.4588 14.875 21.875 14.875Z" stroke="#FE520B" stroke-width="1.5" stroke-miterlimit="10" stroke-linecap="round" stroke-linejoin="round"/>
  <path d="M21.875 35.875C24.2912 35.875 26.25 33.9162 26.25 31.5C26.25 29.0838 24.2912 27.125 21.875 27.125C19.4588 27.125 17.5 29.0838 17.5 31.5C17.5 33.9162 19.4588 35.875 21.875 35.875Z" stroke="#FE520B" stroke-width="1.5" stroke-miterlimit="10" stroke-linecap="round" stroke-linejoin="round"/>
  <path d="M35.875 40.25C37.3247 40.25 38.5 39.0747 38.5 37.625C38.5 36.1753 37.3247 35 35.875 35C34.4253 35 33.25 36.1753 33.25 37.625C33.25 39.0747 34.4253 40.25 35.875 40.25Z" stroke="#FE520B" stroke-width="1.5" stroke-miterlimit="10" stroke-linecap="round" stroke-linejoin="round"/>
  <path d="M37.625 29.75C39.0747 29.75 40.25 28.5747 40.25 27.125C40.25 25.6753 39.0747 24.5 37.625 24.5C36.1753 24.5 35 25.6753 35 27.125C35 28.5747 36.1753 29.75 37.625 29.75Z" stroke="#FE520B" stroke-width="1.5" stroke-miterlimit="10" stroke-linecap="round" stroke-linejoin="round"/>
  <path d="M35.875 7C37.3247 7 38.5 5.82475 38.5 4.375C38.5 2.92525 37.3247 1.75 35.875 1.75C34.4253 1.75 33.25 2.92525 33.25 4.375C33.25 5.82475 34.4253 7 35.875 7Z" stroke="#FE520B" stroke-width="1.5" stroke-miterlimit="10" stroke-linecap="round" stroke-linejoin="round"/>
  <path d="M37.625 17.5C39.0747 17.5 40.25 16.3248 40.25 14.875C40.25 13.4252 39.0747 12.25 37.625 12.25C36.1753 12.25 35 13.4252 35 14.875C35 16.3248 36.1753 17.5 37.625 17.5Z" stroke="#FE520B" stroke-width="1.5" stroke-miterlimit="10" stroke-linecap="round" stroke-linejoin="round"/>
  <path d="M9.625 18.3751L18.522 13.3159" stroke="#FE520B" stroke-width="1.5" stroke-miterlimit="10" stroke-linecap="round" stroke-linejoin="round"/>
  <path d="M25.8843 8.75684L33.4987 5.46875" stroke="#FE520B" stroke-width="1.5" stroke-miterlimit="10" stroke-linecap="round" stroke-linejoin="round"/>
  <path d="M26.0757 11.6771L35.1066 14.1562" stroke="#FE520B" stroke-width="1.5" stroke-miterlimit="10" stroke-linecap="round" stroke-linejoin="round"/>
  <path d="M9.53955 23.7515L18.423 28.8028" stroke="#FE520B" stroke-width="1.5" stroke-miterlimit="10" stroke-linecap="round" stroke-linejoin="round"/>
  <path d="M25.8999 33.25L33.4928 36.5286" stroke="#FE520B" stroke-width="1.5" stroke-miterlimit="10" stroke-linecap="round" stroke-linejoin="round"/>
  <path d="M26.1309 30.4849L35.1078 27.8445" stroke="#FE520B" stroke-width="1.5" stroke-miterlimit="10" stroke-linecap="round" stroke-linejoin="round"/>
</svg>
