<svg width="42" height="42" viewBox="0 0 42 42" fill="none" xmlns="http://www.w3.org/2000/svg">
  <g clipPath="url(#clip0_1630_66)">
  <path d="M16.5534 13.9142C20.2284 12.1729 25.5641 3.76416 25.5641 3.76416L33.0751 19.6367C33.0751 19.6367 23.2016 18.4432 19.5231 20.1827L17.6419 21.0734C16.8106 21.4679 15.8567 21.5161 14.99 21.2072C14.1232 20.8984 13.4146 20.2579 13.0201 19.4267C12.6256 18.5954 12.5775 17.6415 12.8863 16.7747C13.1951 15.908 13.8356 15.1994 14.6669 14.8049L16.5534 13.9142Z" stroke="#FE520B" stroke-width="1.5" stroke-linecap="round" stroke-linejoin="round"/>
  <path d="M6.5625 29.3125C8.97875 29.3125 10.9375 27.3537 10.9375 24.9375C10.9375 22.5213 8.97875 20.5625 6.5625 20.5625C4.14625 20.5625 2.1875 22.5213 2.1875 24.9375C2.1875 27.3537 4.14625 29.3125 6.5625 29.3125Z" stroke="#FE520B" stroke-width="1.5" stroke-linecap="round" stroke-linejoin="round"/>
  <path d="M3.93755 34.321C3.10683 34.7619 2.41881 35.4302 1.95396 36.2477C1.4891 37.0652 1.26662 37.9982 1.31255 38.9375V40.6875" stroke="#FE520B" stroke-width="1.5" stroke-linecap="round" stroke-linejoin="round"/>
  <path d="M12.6875 40.6875V37.6022C17.8395 35.2625 21.4375 31.8273 21.4375 25.8125C21.4375 25.1163 21.1609 24.4486 20.6687 23.9563C20.1764 23.4641 19.5087 23.1875 18.8125 23.1875C18.1163 23.1875 17.4486 23.4641 16.9563 23.9563C16.4641 24.4486 16.1875 25.1163 16.1875 25.8125C16.1875 29.183 14.4375 30.4062 11.8125 32.1265" stroke="#FE520B" stroke-width="1.5" stroke-linecap="round" stroke-linejoin="round"/>
  <path d="M33.6875 9.1875L38.0625 6.5625" stroke="#FE520B" stroke-width="1.5" stroke-linecap="round" stroke-linejoin="round"/>
  <path d="M31.0625 4.8125L34.5625 1.3125" stroke="#FE520B" stroke-width="1.5" stroke-linecap="round" stroke-linejoin="round"/>
  <path d="M35.4375 13.5625L40.6875 12.6875" stroke="#FE520B" stroke-width="1.5" stroke-linecap="round" stroke-linejoin="round"/>
  </g>
  <defs>
  <clipPath id="clip0_1630_66">
  <rect width="42" height="42" fill="white"/>
  </clipPath>
  </defs>
</svg>
